<svg width="1440" height="461" viewBox="0 0 1440 461" fill="none" xmlns="http://www.w3.org/2000/svg">
<path d="M-1 422.51C201.703 422.51 346.472 387.633 479.333 389.758C788.74 394.705 642.639 247.682 959.667 247.682C1304.86 247.682 1222.24 118 1440 118" stroke="#5F82FF" stroke-width="3"/>
<path d="M479.333 385.758C346.472 383.633 201.703 418.51 -1 418.51V461H1440V114C1222.24 114 1304.86 243.682 959.667 243.682C642.639 243.682 788.74 390.705 479.333 385.758Z" fill="url(#paint0_linear)" fill-opacity="0.4"/>
<line x1="923.5" y1="200" x2="923.5" y2="389" stroke="#D8E0F7"/>
<g filter="url(#filter0_d)">
<circle cx="923.5" cy="248.5" r="7.5" fill="white"/>
<circle cx="923.5" cy="248.5" r="6.5" stroke="#5E80FE" stroke-width="2"/>
</g>
<line x1="1331.5" x2="1331.5" y2="317" stroke="#D8E0F7"/>
<g filter="url(#filter1_d)">
<circle cx="1331.5" cy="134.5" r="7.5" fill="white"/>
<circle cx="1331.5" cy="134.5" r="6.5" stroke="#5E80FE" stroke-width="2"/>
</g>
<line x1="514.5" y1="378" x2="514.5" y2="437" stroke="#D8E0F7"/>
<line x1="106.5" y1="262" x2="106.5" y2="452" stroke="#D8E0F7"/>
<g filter="url(#filter2_d)">
<circle cx="106.5" cy="419.5" r="7.5" fill="white"/>
<circle cx="106.5" cy="419.5" r="6.5" stroke="#5E80FE" stroke-width="2"/>
</g>
<g filter="url(#filter3_d)">
<circle cx="514.5" cy="389.5" r="7.5" fill="white"/>
<circle cx="514.5" cy="389.5" r="6.5" stroke="#5E80FE" stroke-width="2"/>
</g>
<g filter="url(#filter4_d)">
<mask id="path-15-inside-1" fill="white">
<path fill-rule="evenodd" clip-rule="evenodd" d="M561 303C561 301.343 559.657 300 558 300H472C470.343 300 469 301.343 469 303V360.26C469 361.917 470.343 363.26 472 363.26H508.669C509.665 363.26 510.596 363.754 511.154 364.579L512.515 366.591C513.705 368.35 516.295 368.35 517.485 366.591L518.846 364.579C519.404 363.754 520.335 363.26 521.331 363.26H558C559.657 363.26 561 361.917 561 360.26V303Z"/>
</mask>
<path fill-rule="evenodd" clip-rule="evenodd" d="M561 303C561 301.343 559.657 300 558 300H472C470.343 300 469 301.343 469 303V360.26C469 361.917 470.343 363.26 472 363.26H508.669C509.665 363.26 510.596 363.754 511.154 364.579L512.515 366.591C513.705 368.35 516.295 368.35 517.485 366.591L518.846 364.579C519.404 363.754 520.335 363.26 521.331 363.26H558C559.657 363.26 561 361.917 561 360.26V303Z" fill="white"/>
<path d="M518.846 364.579L518.017 364.019L518.846 364.579ZM512.515 366.591L513.343 366.031L512.515 366.591ZM517.485 366.591L518.313 367.151L517.485 366.591ZM472 301H558V299H472V301ZM470 360.26V303H468V360.26H470ZM508.669 362.26H472V364.26H508.669V362.26ZM513.343 366.031L511.983 364.019L510.326 365.14L511.687 367.151L513.343 366.031ZM518.017 364.019L516.657 366.031L518.313 367.151L519.674 365.14L518.017 364.019ZM558 362.26H521.331V364.26H558V362.26ZM560 303V360.26H562V303H560ZM558 364.26C560.209 364.26 562 362.469 562 360.26H560C560 361.365 559.105 362.26 558 362.26V364.26ZM519.674 365.14C520.046 364.59 520.667 364.26 521.331 364.26V362.26C520.003 362.26 518.761 362.919 518.017 364.019L519.674 365.14ZM511.687 367.151C513.273 369.497 516.727 369.497 518.313 367.151L516.657 366.031C515.863 367.204 514.136 367.204 513.343 366.031L511.687 367.151ZM508.669 364.26C509.333 364.26 509.954 364.59 510.326 365.14L511.983 364.019C511.239 362.919 509.997 362.26 508.669 362.26V364.26ZM468 360.26C468 362.469 469.791 364.26 472 364.26V362.26C470.895 362.26 470 361.365 470 360.26H468ZM558 301C559.105 301 560 301.895 560 303H562C562 300.791 560.209 299 558 299V301ZM472 299C469.791 299 468 300.791 468 303H470C470 301.895 470.895 301 472 301V299Z" fill="#D8E0F7" mask="url(#path-15-inside-1)"/>
<path d="M498 333.25C498 323.723 505.668 316 515.128 316C516.871 316 518.554 316.262 520.139 316.75" stroke="#5F82FF" stroke-width="4" stroke-linecap="round" stroke-linejoin="round"/>
<path fill-rule="evenodd" clip-rule="evenodd" d="M511.441 336.962C513.477 339.013 516.778 339.013 518.813 336.962C520.849 334.912 529.276 320.5 528.532 319.75C527.787 319 513.477 327.487 511.441 329.538C509.406 331.588 509.406 334.912 511.441 336.962ZM515.127 334.75C515.95 334.75 516.617 334.078 516.617 333.25C516.617 332.422 515.95 331.75 515.127 331.75C514.305 331.75 513.638 332.422 513.638 333.25C513.638 334.078 514.305 334.75 515.127 334.75Z" fill="#5F82FF"/>
<ellipse cx="500.234" cy="342.25" rx="1.48936" ry="1.5" fill="#5F82FF"/>
<ellipse cx="506.191" cy="348.25" rx="1.48936" ry="1.5" fill="#5F82FF"/>
<ellipse cx="515.128" cy="350.5" rx="1.48936" ry="1.5" fill="#5F82FF"/>
<ellipse cx="524.064" cy="348.25" rx="1.48936" ry="1.5" fill="#5F82FF"/>
<ellipse cx="529.277" cy="342.25" rx="1.48936" ry="1.5" fill="#5F82FF"/>
<ellipse cx="531.511" cy="333.25" rx="1.48936" ry="1.5" fill="#5F82FF"/>
</g>
<defs>
<filter id="filter0_d" x="901" y="226" width="45" height="45" filterUnits="userSpaceOnUse" color-interpolation-filters="sRGB">
<feFlood flood-opacity="0" result="BackgroundImageFix"/>
<feColorMatrix in="SourceAlpha" type="matrix" values="0 0 0 0 0 0 0 0 0 0 0 0 0 0 0 0 0 0 127 0"/>
<feOffset/>
<feGaussianBlur stdDeviation="7.5"/>
<feColorMatrix type="matrix" values="0 0 0 0 0.323144 0 0 0 0 0.512664 0 0 0 0 1 0 0 0 0.25 0"/>
<feBlend mode="normal" in2="BackgroundImageFix" result="effect1_dropShadow"/>
<feBlend mode="normal" in="SourceGraphic" in2="effect1_dropShadow" result="shape"/>
</filter>
<filter id="filter1_d" x="1309" y="112" width="45" height="45" filterUnits="userSpaceOnUse" color-interpolation-filters="sRGB">
<feFlood flood-opacity="0" result="BackgroundImageFix"/>
<feColorMatrix in="SourceAlpha" type="matrix" values="0 0 0 0 0 0 0 0 0 0 0 0 0 0 0 0 0 0 127 0"/>
<feOffset/>
<feGaussianBlur stdDeviation="7.5"/>
<feColorMatrix type="matrix" values="0 0 0 0 0.323144 0 0 0 0 0.512664 0 0 0 0 1 0 0 0 0.25 0"/>
<feBlend mode="normal" in2="BackgroundImageFix" result="effect1_dropShadow"/>
<feBlend mode="normal" in="SourceGraphic" in2="effect1_dropShadow" result="shape"/>
</filter>
<filter id="filter2_d" x="84" y="397" width="45" height="45" filterUnits="userSpaceOnUse" color-interpolation-filters="sRGB">
<feFlood flood-opacity="0" result="BackgroundImageFix"/>
<feColorMatrix in="SourceAlpha" type="matrix" values="0 0 0 0 0 0 0 0 0 0 0 0 0 0 0 0 0 0 127 0"/>
<feOffset/>
<feGaussianBlur stdDeviation="7.5"/>
<feColorMatrix type="matrix" values="0 0 0 0 0.323144 0 0 0 0 0.512664 0 0 0 0 1 0 0 0 0.25 0"/>
<feBlend mode="normal" in2="BackgroundImageFix" result="effect1_dropShadow"/>
<feBlend mode="normal" in="SourceGraphic" in2="effect1_dropShadow" result="shape"/>
</filter>
<filter id="filter3_d" x="492" y="367" width="45" height="45" filterUnits="userSpaceOnUse" color-interpolation-filters="sRGB">
<feFlood flood-opacity="0" result="BackgroundImageFix"/>
<feColorMatrix in="SourceAlpha" type="matrix" values="0 0 0 0 0 0 0 0 0 0 0 0 0 0 0 0 0 0 127 0"/>
<feOffset/>
<feGaussianBlur stdDeviation="7.5"/>
<feColorMatrix type="matrix" values="0 0 0 0 0.323144 0 0 0 0 0.512664 0 0 0 0 1 0 0 0 0.25 0"/>
<feBlend mode="normal" in2="BackgroundImageFix" result="effect1_dropShadow"/>
<feBlend mode="normal" in="SourceGraphic" in2="effect1_dropShadow" result="shape"/>
</filter>
<filter id="filter4_d" x="439" y="280" width="152" height="127.911" filterUnits="userSpaceOnUse" color-interpolation-filters="sRGB">
<feFlood flood-opacity="0" result="BackgroundImageFix"/>
<feColorMatrix in="SourceAlpha" type="matrix" values="0 0 0 0 0 0 0 0 0 0 0 0 0 0 0 0 0 0 127 0"/>
<feOffset dy="10"/>
<feGaussianBlur stdDeviation="15"/>
<feColorMatrix type="matrix" values="0 0 0 0 0.894415 0 0 0 0 0.918495 0 0 0 0 0.984716 0 0 0 1 0"/>
<feBlend mode="normal" in2="BackgroundImageFix" result="effect1_dropShadow"/>
<feBlend mode="normal" in="SourceGraphic" in2="effect1_dropShadow" result="shape"/>
</filter>
<linearGradient id="paint0_linear" x1="277.466" y1="461.443" x2="277.466" y2="6.0051" gradientUnits="userSpaceOnUse">
<stop stop-color="#4B71FF" stop-opacity="0"/>
<stop offset="0.5625" stop-color="#6B89F8"/>
<stop offset="0.666667" stop-color="#6B89F8"/>
<stop offset="0.96875" stop-color="#6B89F8"/>
</linearGradient>
</defs>
</svg>
