<svg width="152" height="132" viewBox="0 0 152 132" fill="none" xmlns="http://www.w3.org/2000/svg">
<g filter="url(#filter0_d)">
<circle cx="75.5" cy="109.5" r="7.5" fill="white"/>
<circle cx="75.5" cy="109.5" r="6.5" stroke="#5E80FE" stroke-width="2"/>
</g>
<g filter="url(#filter1_d)">
<mask id="path-3-inside-1" fill="white">
<path fill-rule="evenodd" clip-rule="evenodd" d="M122 23C122 21.3431 120.657 20 119 20H33C31.3431 20 30 21.3431 30 23V80.26C30 81.9168 31.3431 83.26 33 83.26H69.6692C70.6652 83.26 71.5963 83.7543 72.1542 84.5793L73.5149 86.5912C74.7046 88.3504 77.2953 88.3504 78.485 86.5911L79.8455 84.5794C80.4035 83.7543 81.3346 83.26 82.3306 83.26H119C120.657 83.26 122 81.9168 122 80.26V23Z"/>
</mask>
<path fill-rule="evenodd" clip-rule="evenodd" d="M122 23C122 21.3431 120.657 20 119 20H33C31.3431 20 30 21.3431 30 23V80.26C30 81.9168 31.3431 83.26 33 83.26H69.6692C70.6652 83.26 71.5963 83.7543 72.1542 84.5793L73.5149 86.5912C74.7046 88.3504 77.2953 88.3504 78.485 86.5911L79.8455 84.5794C80.4035 83.7543 81.3346 83.26 82.3306 83.26H119C120.657 83.26 122 81.9168 122 80.26V23Z" fill="white"/>
<path d="M79.8455 84.5794L79.0172 84.0192L79.8455 84.5794ZM73.5149 86.5912L74.3432 86.031L73.5149 86.5912ZM72.1542 84.5793L71.3259 85.1395L72.1542 84.5793ZM33 21H119V19H33V21ZM31 80.26V23H29V80.26H31ZM69.6692 82.26H33V84.26H69.6692V82.26ZM74.3432 86.031L72.9826 84.0191L71.3259 85.1395L72.6865 87.1514L74.3432 86.031ZM79.0172 84.0192L77.6567 86.031L79.3134 87.1513L80.6739 85.1396L79.0172 84.0192ZM119 82.26H82.3306V84.26H119V82.26ZM121 23V80.26H123V23H121ZM119 84.26C121.209 84.26 123 82.4691 123 80.26H121C121 81.3645 120.105 82.26 119 82.26V84.26ZM80.6739 85.1396C81.0459 84.5895 81.6666 84.26 82.3306 84.26V82.26C81.0026 82.26 79.7611 82.9191 79.0172 84.0192L80.6739 85.1396ZM72.6865 87.1514C74.2729 89.497 77.7271 89.4969 79.3134 87.1513L77.6567 86.031C76.8635 87.2038 75.1364 87.2038 74.3432 86.031L72.6865 87.1514ZM69.6692 84.26C70.3332 84.26 70.9539 84.5895 71.3259 85.1395L72.9826 84.0191C72.2386 82.9191 70.9972 82.26 69.6692 82.26V84.26ZM29 80.26C29 82.4691 30.7909 84.26 33 84.26V82.26C31.8954 82.26 31 81.3645 31 80.26H29ZM119 21C120.105 21 121 21.8954 121 23H123C123 20.7909 121.209 19 119 19V21ZM33 19C30.7909 19 29 20.7909 29 23H31C31 21.8954 31.8954 21 33 21V19Z" fill="#D8E0F7" mask="url(#path-3-inside-1)"/>
<path d="M59 53.25C59 43.7231 66.6683 36 76.1277 36C77.8711 36 79.5537 36.2624 81.1387 36.75" stroke="#5F82FF" stroke-width="4" stroke-linecap="round" stroke-linejoin="round"/>
<path fill-rule="evenodd" clip-rule="evenodd" d="M72.4415 56.9623C74.4774 59.0126 77.778 59.0126 79.8136 56.9623C81.8492 54.912 90.2765 40.5 89.5319 39.75C88.787 39 74.4774 47.4874 72.4415 49.5377C70.4059 51.5879 70.4059 54.912 72.4415 56.9623ZM76.1273 54.75C76.9501 54.75 77.6168 54.0785 77.6168 53.25C77.6168 52.4216 76.9501 51.75 76.1273 51.75C75.3048 51.75 74.6381 52.4216 74.6381 53.25C74.6381 54.0785 75.3048 54.75 76.1273 54.75Z" fill="#5F82FF"/>
<ellipse cx="61.234" cy="62.25" rx="1.48936" ry="1.5" fill="#5F82FF"/>
<ellipse cx="67.1915" cy="68.25" rx="1.48936" ry="1.5" fill="#5F82FF"/>
<ellipse cx="76.1275" cy="70.5" rx="1.48936" ry="1.5" fill="#5F82FF"/>
<ellipse cx="85.0638" cy="68.25" rx="1.48936" ry="1.5" fill="#5F82FF"/>
<ellipse cx="90.2767" cy="62.25" rx="1.48936" ry="1.5" fill="#5F82FF"/>
<ellipse cx="92.5106" cy="53.25" rx="1.48936" ry="1.5" fill="#5F82FF"/>
</g>
<defs>
<filter id="filter0_d" x="53" y="87" width="45" height="45" filterUnits="userSpaceOnUse" color-interpolation-filters="sRGB">
<feFlood flood-opacity="0" result="BackgroundImageFix"/>
<feColorMatrix in="SourceAlpha" type="matrix" values="0 0 0 0 0 0 0 0 0 0 0 0 0 0 0 0 0 0 127 0"/>
<feOffset/>
<feGaussianBlur stdDeviation="7.5"/>
<feColorMatrix type="matrix" values="0 0 0 0 0.323144 0 0 0 0 0.512664 0 0 0 0 1 0 0 0 0.25 0"/>
<feBlend mode="normal" in2="BackgroundImageFix" result="effect1_dropShadow"/>
<feBlend mode="normal" in="SourceGraphic" in2="effect1_dropShadow" result="shape"/>
</filter>
<filter id="filter1_d" x="0" y="0" width="152" height="127.911" filterUnits="userSpaceOnUse" color-interpolation-filters="sRGB">
<feFlood flood-opacity="0" result="BackgroundImageFix"/>
<feColorMatrix in="SourceAlpha" type="matrix" values="0 0 0 0 0 0 0 0 0 0 0 0 0 0 0 0 0 0 127 0"/>
<feOffset dy="10"/>
<feGaussianBlur stdDeviation="15"/>
<feColorMatrix type="matrix" values="0 0 0 0 0.894415 0 0 0 0 0.918495 0 0 0 0 0.984716 0 0 0 1 0"/>
<feBlend mode="normal" in2="BackgroundImageFix" result="effect1_dropShadow"/>
<feBlend mode="normal" in="SourceGraphic" in2="effect1_dropShadow" result="shape"/>
</filter>
</defs>
</svg>
